<svg width="17" height="17" viewBox="0 0 17 17" fill="none" xmlns="http://www.w3.org/2000/svg">
<path d="M12.4972 16.9285C11.6254 16.9285 10.7074 16.7159 9.75858 16.3065C8.83286 15.9049 7.89944 15.3538 6.98915 14.6845C6.08658 14.0073 5.21486 13.2515 4.38943 12.4247C3.57172 11.5822 2.83115 10.6925 2.17543 9.77916C1.512 8.83431 0.979715 7.88947 0.601715 6.97612C0.200572 5.99977 0 5.05493 0 4.1652C0 3.55105 0.108 2.96839 0.316286 2.42511C0.532286 1.86607 0.879429 1.34641 1.35 0.897604C1.944 0.299201 2.62286 0 3.348 0C3.64886 0 3.95743 0.0708635 4.21972 0.196843C4.52058 0.33857 4.77515 0.55116 4.96029 0.834614L6.75001 3.40932C6.91201 3.63766 7.03543 3.85812 7.12029 4.07859C7.22058 4.3148 7.27458 4.55101 7.27458 4.77935C7.27458 5.07855 7.18972 5.36988 7.02772 5.64546C6.91201 5.85805 6.73458 6.08639 6.51086 6.31472L5.98629 6.87376C5.99401 6.89738 6.00172 6.91313 6.00943 6.92887C6.10201 7.09422 6.28715 7.37768 6.64201 7.80286C7.02001 8.24378 7.37486 8.64534 7.72972 9.01541C8.18486 9.47208 8.56287 9.83428 8.91772 10.1335C9.35744 10.5114 9.64287 10.7004 9.81258 10.787L9.79715 10.8264L10.3603 10.2595C10.5994 10.0154 10.8309 9.83428 11.0546 9.71617C11.4789 9.44846 12.0189 9.40122 12.5589 9.62956C12.7594 9.71617 12.9754 9.83428 13.2069 9.99962L15.768 11.8578C16.0534 12.0547 16.2617 12.3066 16.3852 12.6058C16.5009 12.905 16.5549 13.1806 16.5549 13.4562C16.5549 13.8341 16.47 14.2121 16.308 14.5664C16.146 14.9207 15.9454 15.2278 15.6909 15.5112C15.2512 16.0073 14.7729 16.3616 14.2174 16.5899C13.6852 16.8104 13.1066 16.9285 12.4972 16.9285ZM3.348 1.18106C2.92372 1.18106 2.53029 1.37003 2.15229 1.74797C1.79743 2.08654 1.55057 2.4566 1.39629 2.85816C1.23429 3.26759 1.15714 3.70065 1.15714 4.1652C1.15714 4.89745 1.32686 5.6927 1.66629 6.51157C2.01343 7.34618 2.49943 8.21229 3.11657 9.0784C3.73372 9.94451 4.43572 10.787 5.20715 11.5822C5.97858 12.3617 6.81172 13.0861 7.66801 13.7239C8.50115 14.3459 9.35744 14.8498 10.206 15.212C11.5252 15.7868 12.7594 15.9207 13.7777 15.4876C14.1712 15.3223 14.5183 15.0703 14.8346 14.7081C15.012 14.5113 15.1509 14.2987 15.2666 14.0467C15.3592 13.8499 15.4054 13.6452 15.4054 13.4404C15.4054 13.3145 15.3823 13.1885 15.3206 13.0468C15.2974 12.9995 15.2512 12.9129 15.1046 12.8105L12.5434 10.9523C12.3892 10.8421 12.2503 10.7634 12.1192 10.7083C11.9494 10.6374 11.88 10.5665 11.6177 10.7319C11.4634 10.8106 11.3246 10.9287 11.1703 11.0862L10.584 11.6767C10.2832 11.9759 9.8203 12.0468 9.46544 11.9129L9.25715 11.8185C8.94087 11.6452 8.57058 11.3775 8.16172 11.0232C7.79144 10.7004 7.39029 10.3224 6.90429 9.83428C6.52629 9.44059 6.14829 9.02328 5.75486 8.55873C5.39229 8.12568 5.13 7.75561 4.968 7.44854L4.87543 7.21233C4.82915 7.03123 4.81372 6.92887 4.81372 6.81864C4.81372 6.53519 4.914 6.28323 5.10686 6.08639L5.68543 5.47224C5.83972 5.31476 5.95543 5.16516 6.03258 5.03131C6.09429 4.92895 6.11743 4.84234 6.11743 4.7636C6.11743 4.70061 6.09429 4.60613 6.05572 4.51164C6.00172 4.38566 5.91686 4.24394 5.80886 4.09433L4.01915 1.51175C3.942 1.40152 3.84943 1.32278 3.73372 1.26767C3.61029 1.21255 3.47915 1.18106 3.348 1.18106ZM9.79715 10.8342L9.67372 11.3697L9.88201 10.8185C9.84344 10.8106 9.81258 10.8185 9.79715 10.8342Z" fill="#414141"/>
</svg>
