<svg width="56" height="78" viewBox="0 0 56 78" fill="none" xmlns="http://www.w3.org/2000/svg">
<g clip-path="url(#clip0_860_3036)">
<path fill-rule="evenodd" clip-rule="evenodd" d="M27.8551 58.8047H28.1433C28.1433 59.7005 30.2415 69.9009 30.4483 70.8399L25.55 70.8399C25.7386 69.9839 27.8551 59.6116 27.8551 58.8047ZM26.8888 0L29.3655 0C31.5073 0.163845 33.631 0.758194 35.6353 1.82752C36.7237 2.4082 40.2448 4.37049 40.2448 5.78907C40.2448 6.38592 39.7088 6.85551 39.0923 6.85551C38.3939 6.85551 38.2156 6.41962 37.8169 6.07133C35.1952 3.78057 31.4625 2.28517 27.9991 2.28517C26.0786 2.28517 21.6019 3.29154 20.4758 4.38455C19.5392 5.29369 19.486 12.9675 22.4835 15.5824C22.9522 15.9914 23.5095 15.9962 24.083 16.3285C30.2859 19.9221 35.2007 21.7853 43.7024 21.7853C43.7024 18.1545 43.6442 16.239 42.5699 13.0803C42.1898 11.9621 41.1091 10.1723 41.1091 9.59775C41.1091 8.6709 42.5288 7.71267 43.4625 9.54673C44.2559 11.1055 44.7444 12.2824 45.2264 14.0799C45.9097 16.6292 45.8555 17.3996 45.8584 19.8101C45.8596 20.729 46.0075 20.9166 46.0075 21.7853C47.3558 22.1174 48.7448 23.266 48.7448 24.9844C48.7448 28.1437 48.895 29.2353 45.8635 30.7735C45.8635 31.5459 45.7195 31.6035 45.7195 32.4493C45.7195 37.2268 45.6725 39.1687 46.9536 43.941C47.3223 45.3145 48.4564 49.4412 49.6462 50.3866C52.6825 52.7992 55.9482 56.7698 55.9482 62.3086C55.9482 74.3686 57.0115 73.2774 49.4651 73.2774C46.5357 73.2774 43.6063 73.2774 40.6769 73.2774C40.8721 73.7075 41.9736 76.5608 41.9736 76.9336C41.9736 77.5304 41.4376 78 40.8211 78H32.7532C31.5102 78 31.4468 76.2358 31.1358 74.3783C31.0519 73.8775 31.1331 73.2774 30.5922 73.2774C24.3827 73.2774 25.1272 72.8411 24.8399 74.5071C24.5125 76.4043 24.4603 78 23.2447 78H15.1769C14.4799 78 14.0243 77.5181 14.0243 76.7813C14.0243 76.67 15.1931 73.5592 15.3209 73.2774C12.3915 73.2774 9.46209 73.2774 6.53269 73.2774C-1.00081 73.2774 0.0495739 74.348 0.0495739 62.4611C0.0495739 59.255 0.936459 57.1653 2.0726 55.1548C3.03687 53.4484 4.80663 51.5597 6.3508 50.3858C7.13372 49.7907 6.86534 49.8831 7.30086 48.953C7.9922 47.4764 8.63638 45.4271 9.07591 43.8222C9.67147 41.6481 10.2785 38.4923 10.2785 35.8009C10.2785 28.9954 10.3231 31.4506 8.65513 29.9001C7.99238 29.2842 7.25298 28.3641 7.25298 27.1173C7.25298 25.0183 6.92579 22.5402 9.99029 21.7853C9.99029 15.9935 10.2028 13.8117 12.4883 9.34477C13.3796 7.60273 15.4181 5.17412 16.8416 4.04569C19.8187 1.68543 23.3241 0.268968 26.8886 0.000192533L26.8888 0ZM33.7617 54.8437C34.9936 54.9521 38.2001 57.4483 38.892 54.9367C39.0355 54.4163 38.9483 47.9214 38.9483 47.0742C39.9459 47.5804 42.807 48.6611 43.8938 49.3094C45.4771 50.2539 46.951 51.1452 48.3153 52.2511C48.991 52.7988 49.5996 53.3887 50.2216 54.0437C52.0482 55.9671 53.6431 58.7217 53.6431 61.8515V70.8399H46.0075V62.1563C46.0075 59.1674 43.7024 60.3692 43.7024 61.2421L43.7024 70.8399H39.6686L33.7617 54.8437ZM29.4396 53.7773C31.3081 53.7773 30.7637 53.3951 31.8474 56.2584C32.2072 57.2094 32.5435 58.0971 32.8767 58.9787L37.0584 70.0958C37.4036 71.1094 39.0415 75.0708 39.0921 75.7146H33.6175C33.6175 74.7853 33.3153 73.8987 33.1483 73.0115C32.9885 72.1622 32.8086 71.1156 32.609 70.2301L30.4849 59.3746C30.2805 58.2877 29.4395 54.5738 29.4395 53.7771L29.4396 53.7773ZM22.3803 75.7148H16.9056C17.0076 74.4183 19.931 68.3058 19.931 66.8789C19.931 66.1662 19.1925 65.9648 18.6344 65.9648C17.6398 65.9648 16.3341 70.7783 16.3294 70.8397H12.2955V61.242C12.2955 60.369 9.99047 59.1672 9.99047 62.1561V70.8397H2.35482V61.5467C2.35482 56.6629 6.54271 52.9238 9.72992 50.7595C11.4347 49.602 13.7816 48.427 15.6899 47.6166C16.1628 47.4158 16.6571 47.2731 17.0497 47.0741C17.0497 48.8007 17.0497 50.5271 17.0497 52.2538C17.0497 53.6481 16.607 56.0624 18.6344 56.0624C19.3261 56.0624 19.8086 55.7392 20.4171 55.5101C20.9918 55.2937 21.6798 54.8926 22.2361 54.8437C21.4874 58.2415 17.6906 63.375 20.9395 63.375C21.627 63.375 22.0199 61.8912 22.2566 61.2639L24.6837 54.8422C25.1203 53.6298 24.8324 53.7773 26.558 53.7773C26.5419 54.5339 26.2395 55.6845 26.0898 56.4814C25.6503 58.8234 22.3801 74.6728 22.3801 75.7146L22.3803 75.7148ZM32.7532 46.7695C33.9709 46.4695 35.7975 45.4543 36.643 45.246V53.3202C36.1207 53.2742 35.2467 52.8215 34.7287 52.6022C34.1292 52.3485 33.3222 51.937 32.7532 51.7969V46.7697V46.7695ZM19.2107 53.3202V45.246C19.9288 45.3091 22.0218 46.4681 23.2446 46.7695V51.7967C22.1523 52.0658 20.1628 53.2977 19.2107 53.3202ZM25.4056 47.2265H30.592V51.3398H25.4056V47.2265ZM21.948 39.914C26.0929 42.2332 29.9047 42.2332 34.0498 39.914V43.7226C33.7506 43.8899 31.6366 44.7891 31.3125 44.7891H24.6853C24.2946 44.7891 22.2869 43.9123 21.948 43.7226V39.914ZM43.4142 33.0584C43.4142 37.1286 43.7538 40.9596 44.802 44.6926C45.0953 45.7369 45.4964 46.6713 45.7195 47.6836C44.6612 47.0916 43.6766 46.5771 42.51 46.05C41.7978 45.7281 39.6413 44.6976 38.9483 44.6368C38.9483 42.7488 37.7927 42.0792 36.355 42.8087C36.355 35.473 35.9115 40.3527 40.4737 34.2146C40.9151 33.6208 41.946 32.2157 42.1178 31.5351C42.882 31.5351 42.9685 31.5282 43.5586 31.3828C43.5586 32.1553 43.4146 32.2128 43.4146 33.0586L43.4142 33.0584ZM12.4395 31.3826C13.0295 31.528 13.116 31.5349 13.8803 31.5349C14.458 33.8232 19.5738 38.459 19.575 38.4623C19.7542 38.9347 19.6431 42.047 19.6431 42.8083C18.8963 42.4294 18.0531 42.3428 17.4515 43.0805C17.1125 43.4962 17.0499 43.8905 17.0499 44.6364C15.9525 44.7328 11.4035 47.0538 10.2787 47.6832C10.4899 46.724 10.8812 45.7683 11.1619 44.8085C11.4332 43.8815 11.659 42.7494 11.8514 41.729C12.4971 38.305 12.5838 36.6089 12.5838 33.0581C12.5838 32.2123 12.4397 32.1547 12.4397 31.3822L12.4395 31.3826ZM43.4142 28.9452C43.7425 27.4554 44.2787 25.9474 44.2787 24.0702C46.2644 24.0702 46.9352 24.4877 46.5566 26.9359C46.372 28.1292 44.7978 28.9454 43.4144 28.9454L43.4142 28.9452ZM12.5836 28.9452C11.2 28.9452 9.62577 28.1292 9.44115 26.9357C9.06262 24.4875 9.73338 24.0701 11.7191 24.0701C11.7191 26.0809 12.2362 27.3685 12.5836 28.945V28.9452ZM28.1429 39.3046C24.3925 39.3046 20.9533 36.7976 18.5263 34.2392C16.4719 32.0738 14.0241 28.3323 14.0241 24.0702C16.0228 23.5779 17.2518 23.2402 19.0283 21.8971C19.4257 21.5968 19.6125 21.3933 19.9754 21.0706C21.4952 19.7194 20.6411 20.4166 21.6955 19.2332C22.9491 17.8262 21.909 17.971 24.6363 19.399C25.3657 19.7808 25.9209 20.0946 26.6519 20.4668C30.8145 22.5864 36.9853 24.0702 41.9731 24.0702C41.9731 27.6275 40.6314 29.8066 39.1209 32.1753L37.4713 34.2394C36.3193 35.4468 34.9947 36.6619 33.5203 37.5264C32.2549 38.2684 30.0084 39.3046 28.1425 39.3046H28.1429ZM17.6259 6.55073C17.6259 10.3843 17.8506 11.8931 19.257 14.8807C19.803 16.0409 20.3448 16.4194 20.5073 17.0624C20.2595 17.4539 20.0462 17.5854 19.7659 17.9543C18.9438 19.0357 18.413 19.4473 17.223 20.2928C15.9104 21.2252 14.4507 21.7853 12.2953 21.7853C12.2953 17.4558 12.2618 15.8044 13.4461 12.6427C14.2195 10.5776 16.0419 7.67243 17.6259 6.55092V6.55073Z" fill="white"/>
</g>
<defs>
<clipPath id="clip0_860_3036">
<rect width="56" height="78" fill="white"/>
</clipPath>
</defs>
</svg>
