<svg width="58" height="75" viewBox="0 0 58 75" fill="none" xmlns="http://www.w3.org/2000/svg">
<g clip-path="url(#clip0_860_3006)">
<path fill-rule="evenodd" clip-rule="evenodd" d="M4.50776 71.7771C4.50776 70.533 4.40956 70.4731 4.65801 69.4334C5.02141 69.2634 5.31536 69.1405 5.8601 69.1405H25.544C26.9325 69.1405 26.5958 70.2393 26.5958 72.0702C26.5958 72.5437 26.0504 72.8026 25.544 72.8026H5.55952C4.85805 72.8026 4.50776 72.461 4.50776 71.7772V71.7771ZM33.8083 26.3672L33.8083 21.2403C34.5522 21.4093 35.2861 21.9294 35.5499 22.6186C36.1519 24.1911 35.1651 25.6674 33.8083 26.3672ZM30.0518 16.1134C30.0518 15.3325 30.4614 14.1644 31.5544 13.9162L31.5544 17.7247C30.9179 17.559 30.0518 16.8747 30.0518 16.1134ZM31.5544 11.4259C30.7597 11.7977 29.9751 11.8003 29.0319 12.7754C27.5541 14.3031 27.1198 17.2157 29.1117 18.9342C29.6447 19.3941 30.7913 20.0417 31.5544 20.215V26.5138C28.9027 26.5138 29.3882 24.6935 27.4974 25.9279C26.8378 23.1678 23.975 21.5124 21.0799 23.0408C20.5091 23.3422 19.8547 23.8395 19.6839 24.463H19.3834C19.3672 23.755 19.1247 23.3229 18.9953 22.6441C17.442 14.4967 24.0482 6.59199 32.3057 6.59199C34.7264 6.59199 36.6236 6.85677 38.5684 7.81076C41.5562 9.27639 43.8818 11.2482 45.3508 14.2358C49.7197 23.1215 43.4713 33.8379 32.456 33.8379C30.3602 33.8379 29.2627 33.3258 27.6477 32.959V27.539C28.7791 28.1226 29.7948 28.8574 31.5544 28.8574C31.5544 30.1087 31.3167 31.0546 32.9067 31.0546C34.0476 31.0546 33.8083 29.2529 33.8083 28.7109C35.8182 28.5479 38.0155 26.1489 38.0155 23.877C38.0155 22.2334 37.9488 21.5423 36.6284 20.2488C36.1144 19.7452 36.1191 19.7181 35.4154 19.3806C34.9519 19.1583 34.297 18.8611 33.8083 18.7501V13.7696C35.0099 14.3317 35.8774 15.1254 36.6278 14.3211C37.945 12.9096 35.2596 11.7555 33.8083 11.4259C33.8083 10.38 33.9823 9.3752 32.6062 9.3752C31.4328 9.3752 31.5544 10.2906 31.5544 11.4259ZM18.9326 37.793C16.2468 36.4075 12.9893 38.3236 12.772 40.8691C9.82598 39.3495 7.23268 41.4311 6.91194 42.7734C5.77227 42.5146 4.81684 41.4659 2.49766 42.5716C-0.560722 44.0298 0.15022 47.1344 0.15022 50.83C0.15022 51.6852 2.37639 52.5177 2.41379 50.2535C2.45443 47.7921 1.7498 44.3847 4.50776 44.3847C6.93056 44.3847 5.78239 47.4609 7.51295 47.4609C10.122 47.4609 7.06859 42.6269 10.8186 42.6269C13.1931 42.6269 12.0484 45.7031 13.8238 45.7031C16.0112 45.7031 14.3768 41.6711 15.4119 40.3666C16.505 38.9889 18.3861 39.6151 18.8066 40.8456C19.0788 41.6425 18.8167 42.627 20.1347 42.627C21.7726 42.627 21.3368 40.2395 21.3368 38.6719C21.3367 37.1121 21.1605 26.5211 21.5007 25.7947C22.2112 24.2782 24.9287 24.3731 25.2306 26.5265L25.2436 41.7481C25.2435 42.9864 25.0457 44.4581 25.6486 45.1618C26.7042 46.3938 27.7583 45.7736 28.4019 45.7703C29.3305 45.7656 30.3524 46.6195 30.3524 47.6075V56.9825C30.3524 61.0323 27.8248 63.623 25.5441 66.9433H6.01043C5.89572 66.4633 5.60226 65.8909 5.41323 65.4747C5.19781 65 5.01947 64.4925 4.80445 64.0174C4.02907 62.3053 2.76756 59.6567 2.56517 57.8508C2.47677 57.0616 2.42666 56.8282 2.41322 55.9481C2.38214 53.9066 0.150301 54.6018 0.150301 55.5176C0.150301 59.8068 0.868448 61.0422 2.65333 64.9425C3.04556 65.7995 3.33975 66.6148 3.7565 67.3827C1.88321 68.349 2.2539 70.0457 2.2539 72.2166C2.2539 73.6639 3.6243 74.9998 5.10884 74.9998H26.2954C26.9906 74.9998 27.7584 74.4056 28.1431 74.0178C29.2669 72.8855 29 71.7127 29 69.8728C29 68.6926 28.3978 68.3301 27.9483 67.6755C28.3472 66.0062 32.7566 63.2428 32.7566 56.3963V47.9003C32.7566 45.6403 30.7927 43.5058 28.6995 43.5058H27.6478L27.6478 35.3027C29.7875 36.3036 33.7689 36.3534 36.3664 35.7457C39.5565 34.9994 42.0106 33.6786 44.289 31.4575C54.7169 21.2917 47.0771 4.24821 32.7567 4.24821C25.6408 4.24821 19.4545 8.86955 17.2969 15.1045C15.6274 19.9289 16.3744 24.1182 18.6886 28.2166C19.1652 29.0608 18.9328 36.512 18.9328 37.7929L18.9326 37.793Z" fill="white"/>
<path fill-rule="evenodd" clip-rule="evenodd" d="M12.0205 19.629C12.0205 22.7027 12.2265 24.0992 13.1651 26.8626C13.474 27.7719 13.8669 28.6947 14.2718 29.4458C14.4978 29.8651 14.665 30.1004 14.923 30.5688C15.9115 32.3622 18.1492 31.4094 17.0303 29.5418C12.606 22.1571 13.783 13.2069 20.0187 7.2116C22.2961 5.02196 25.6118 3.3928 28.7354 2.67234C31.5166 2.03087 34.006 2.09883 36.7778 2.67131C38.7871 3.08628 40.075 3.68402 41.7739 4.53904C43.4967 5.40606 45.6207 7.1693 46.8593 8.66326C47.05 8.89308 47.1676 8.97665 47.3552 9.20529C52.3817 15.3323 52.3754 24.2702 47.7816 30.6149C47.135 31.5078 46.377 32.3527 45.5678 33.1442C44.1213 34.5592 41.729 36.0505 39.8418 36.7905C38.3677 37.3684 35.921 38.0759 34.108 38.0863C33.6596 38.0889 33.348 38.1387 33.0009 38.1631C32.578 38.1926 30.352 37.6232 30.352 39.2578C30.352 40.7429 32.001 40.4296 33.5074 40.4296C44.1124 40.4296 53.492 30.836 53.492 21.2403C53.492 17.556 53.2275 14.8354 51.5898 11.6689C51.3038 11.1163 51.074 10.602 50.7824 10.1123C50.6368 9.8679 50.4804 9.67171 50.3079 9.40298C46.9005 4.09638 40.2666 0.000175476 33.808 0.000175476C29.9309 0.000175476 27.2135 0.282552 23.7889 1.95148C16.9527 5.2831 12.0205 12.0953 12.0205 19.6289V19.629Z" fill="white"/>
<path fill-rule="evenodd" clip-rule="evenodd" d="M42.2227 44.2383V45.1172C38.8782 45.1172 39.8052 47.4609 41.1709 47.4609H42.2227C42.2227 48.3539 42.0277 49.6582 43.4248 49.6582C44.7717 49.6582 44.6269 48.2409 44.6269 47.4609C45.2585 47.4609 47.3418 47.5991 46.7723 45.9728C46.4887 45.1629 45.6784 45.1172 44.6269 45.1172C44.6269 43.3117 44.4042 43.0665 43.1243 43.0665C42.6374 43.0665 42.2227 43.703 42.2227 44.2383V44.2383Z" fill="white"/>
<path fill-rule="evenodd" clip-rule="evenodd" d="M2.25385 13.0373L2.25385 14.0627C0.792382 14.0627 0 13.9806 0 15.5275C0 16.536 1.68442 16.4064 2.25385 16.4064C2.25385 17.1882 2.06029 18.6037 3.3057 18.6037C4.70273 18.6037 4.50779 17.2995 4.50779 16.4064C5.42379 16.4064 6.76164 16.5965 6.76164 15.2346C6.76164 13.9215 5.30786 14.0627 4.50779 14.0627V13.0373C4.50779 11.5793 2.25385 11.528 2.25385 13.0373Z" fill="white"/>
<path fill-rule="evenodd" clip-rule="evenodd" d="M53.4922 0.879188V2.19755C52.2086 2.19755 51.2383 1.96584 51.2383 3.51584C51.2383 4.59855 52.94 4.39477 53.4922 4.39477C53.4922 5.38838 53.2417 6.59207 54.6943 6.59207C55.9653 6.59207 55.7461 5.54725 55.7461 4.39477C57.3996 4.39477 58 4.58726 58 3.07649C58 1.9937 56.2983 2.19755 55.7461 2.19755C55.7461 0.946191 55.9838 0.00025177 54.3938 0.00025177C54.0319 0.00025177 53.4922 0.526414 53.4922 0.879188Z" fill="white"/>
</g>
<defs>
<clipPath id="clip0_860_3006">
<rect width="58" height="75" fill="white"/>
</clipPath>
</defs>
</svg>
