<svg width="50" height="72" viewBox="0 0 50 72" fill="none" xmlns="http://www.w3.org/2000/svg">
<g clip-path="url(#clip0_860_3014)">
<path fill-rule="evenodd" clip-rule="evenodd" d="M2.01625 4.21879C2.01625 3.37966 2.34254 2.79441 2.90136 2.47304C3.49805 2.1297 4.50899 2.24703 5.37685 2.25056C6.44216 2.25487 6.95654 2.10204 7.92716 2.10616L28.3651 2.10459C29.2436 2.10596 29.66 2.25625 30.6446 2.25095L45.0273 2.24997C48.7091 2.24487 47.9841 2.91546 47.9841 10.6875L2.01625 10.6875L2.01625 4.21879ZM0 3.6563L0 15.8906C0 17.2556 2.01625 17.1959 2.01625 15.75L2.01625 12.7968L47.9841 12.7968L47.9841 62.5781C47.9841 64.6097 46.2368 64.0544 46.2368 65.3905C46.2368 67.8673 50.0002 65.8076 50.0002 63.1406L50.0002 3.6563C50.0002 1.75359 48.161 0 46.2368 0L3.76359 0C1.83941 0 0.000187523 1.75359 0.000187523 3.6563H0Z" fill="white"/>
<path fill-rule="evenodd" clip-rule="evenodd" d="M0 19.9688L0 63.1406C0 65.0396 1.9673 66.7969 4.16676 66.7969H29.4357C30.8757 66.7969 30.7798 65.9987 30.7798 65.3905C30.7798 64.1588 28.214 64.5467 27.0162 64.5467H13.1722C10.1615 64.5467 6.86747 64.6815 3.89316 64.5516C2.13476 64.4749 2.00706 63.0756 2.01531 61.735L2.01625 23.0622C2.01625 21.018 2.47812 18.9841 0.94099 18.9841C0.313538 18.9841 0.000187523 19.3119 0.000187523 19.9684L0 19.9688Z" fill="white"/>
<path fill-rule="evenodd" clip-rule="evenodd" d="M11.0215 27.9843L38.9785 27.9843V31.0781L11.0215 31.0781V27.9843ZM8.87096 28.2657C8.87096 30.446 8.40065 33.3281 11.5591 33.3281L38.4409 33.3281C41.5993 33.3281 41.129 30.446 41.129 28.2657C41.129 26.857 40.056 25.7344 38.7096 25.7344L11.2902 25.7344C9.94378 25.7344 8.87077 26.857 8.87077 28.2657H8.87096Z" fill="white"/>
<path fill-rule="evenodd" clip-rule="evenodd" d="M11.0213 39.9375L38.9783 39.9375V43.0313L11.0213 43.0313V39.9375ZM8.87076 40.2189C8.87076 42.7382 8.44977 45.2813 11.8278 45.2813L38.172 45.2813C41.55 45.2813 41.129 42.7382 41.129 40.2189C41.129 38.8102 40.056 37.6876 38.7096 37.6876L11.2902 37.6876C9.94377 37.6876 8.87076 38.8102 8.87076 40.2189Z" fill="white"/>
<path fill-rule="evenodd" clip-rule="evenodd" d="M41.2637 64.2656C41.2637 65.4247 43.1128 67.585 43.4142 68.7655C42.9664 68.8746 42.8511 68.9852 42.4985 69.2138C42.1563 69.4355 41.8703 69.5628 41.5324 69.75C41.4049 69.2507 40.7135 68.1626 40.4303 67.6686C40.0872 67.07 39.6971 66.1102 39.2017 65.7196C37.5925 64.4514 36.233 66.4832 34.9464 66.7969V55.5468L44.2207 61.0311C43.9408 62.128 41.2637 62.023 41.2637 64.2656ZM41.7616 72H41.0968C40.1641 71.7916 39.7282 70.6974 39.3575 70.0569C38.884 69.2385 38.4604 68.4761 38.0379 67.6407C37.0311 67.8861 35.6177 69.3282 34.6777 69.3282C33.5059 69.3282 32.7959 68.4314 32.7959 67.2187V55.125C32.7959 54.0381 33.5756 53.0157 34.5432 53.0157C35.2888 53.0157 37.2051 54.3165 37.9607 54.784L44.2669 58.5924C45.275 59.1686 46.7744 59.7986 46.7744 61.0313C46.7744 62.6632 45.3228 63.209 43.4142 64.2658C43.7686 64.9666 44.1495 65.5854 44.5356 66.327C45.4816 68.1441 46.5861 69.2935 43.9451 70.8683C43.5413 71.109 43.2539 71.2729 42.8364 71.5366C42.4299 71.7934 42.0743 71.9392 41.7616 72.0004V72Z" fill="white"/>
<path fill-rule="evenodd" clip-rule="evenodd" d="M21.2365 54.2812C21.2365 53.3734 21.7396 52.5937 22.5806 52.5937H27.4193C29.2092 52.5937 29.191 55.6875 27.2848 55.6875H22.7149C21.9957 55.6875 21.2365 54.9657 21.2365 54.2812ZM19.2204 53.4373V54.5623C19.2204 56.1651 20.7798 57.7968 22.3117 57.7968H27.688C29.194 57.7968 30.7795 56.1594 30.7795 54.5623C30.7795 53.1433 30.7626 52.3679 29.6043 51.2918C28.1733 49.9623 25.5034 50.3435 23.1181 50.3435C21.6089 50.3435 20.4224 50.927 19.698 52.1091C19.5242 52.3928 19.2202 53.0565 19.2202 53.4373H19.2204Z" fill="white"/>
<path fill-rule="evenodd" clip-rule="evenodd" d="M14.3818 17.8595C14.3818 18.5397 14.807 18.9845 15.4571 18.9845L34.5432 18.9845C36.0887 18.9845 35.7233 16.875 34.8121 16.875L15.1884 16.875C14.8085 16.875 14.3818 17.4614 14.3818 17.8593V17.8595Z" fill="white"/>
<path fill-rule="evenodd" clip-rule="evenodd" d="M7.39277 7.45308C6.0036 7.45308 6.0036 5.34358 7.39277 5.34358C8.72306 5.34358 8.72306 7.45308 7.39277 7.45308ZM4.30127 5.90627V6.75011C4.30127 8.25669 5.86521 9.70324 7.25832 9.70324C11.7058 9.70324 11.3381 3.09381 7.39277 3.09381C5.93741 3.09381 4.30127 4.53859 4.30127 5.90627Z" fill="white"/>
<path fill-rule="evenodd" clip-rule="evenodd" d="M23.5217 7.45308C22.1325 7.45308 22.1325 5.34358 23.5217 5.34358C24.852 5.34358 24.852 7.45308 23.5217 7.45308ZM20.4302 5.90627V6.75011C20.4302 8.25669 21.9941 9.70324 23.3872 9.70324C27.8347 9.70324 27.467 3.09381 23.5217 3.09381C22.0303 3.09381 20.4302 4.58195 20.4302 5.90627Z" fill="white"/>
<path fill-rule="evenodd" clip-rule="evenodd" d="M15.4567 7.45308C14.0676 7.45308 14.0676 5.34358 15.4567 5.34358C16.787 5.34358 16.787 7.45308 15.4567 7.45308ZM12.3652 5.90627V6.75011C12.3652 8.25669 13.9292 9.70324 15.3223 9.70324C19.7698 9.70324 19.402 3.09381 15.4567 3.09381C14.7526 3.09381 13.8405 3.55644 13.4148 3.91057C13.0203 4.23881 12.3654 5.23842 12.3654 5.90627H12.3652Z" fill="white"/>
</g>
<defs>
<clipPath id="clip0_860_3014">
<rect width="50" height="72" fill="white"/>
</clipPath>
</defs>
</svg>
