<svg width="65" height="66" viewBox="0 0 65 66" fill="none" xmlns="http://www.w3.org/2000/svg">
<g clip-path="url(#clip0_860_3027)">
<path fill-rule="evenodd" clip-rule="evenodd" d="M0.000168524 23.0743C0.000168524 28.0079 0.872787 29.3551 2.87789 33.1719L5.20403 37.2554C6.98837 39.9762 10.0356 44.5226 12.2185 46.8909L19.2676 54.042C19.5535 54.3007 19.6675 54.3377 19.9637 54.6241C21.3261 55.9416 24.9308 58.5562 26.5588 59.6581C27.624 60.379 28.5406 60.974 29.6672 61.6581C30.2196 61.9936 30.7063 62.2989 31.2729 62.6057C31.889 62.9394 32.2958 63.1923 32.9231 63.5082C36.4832 65.3012 37.5787 66.0002 42.0215 66.0002C45.2823 66.0002 48.7281 64.3409 50.6008 62.8521C51.256 62.3313 54.4954 59.2126 55.048 58.4733C57.2523 55.5232 54.5993 53.4416 53.1617 51.9818L44.5315 43.2136C43.7767 42.45 43.0516 42.1528 41.7677 42.1528C38.7626 42.1528 35.7652 48.3402 33.5158 48.3402C32.116 48.3402 31.2419 47.5456 29.8345 46.5353C28.6983 45.7196 27.5878 44.4731 26.6604 44.4731C26.3848 44.4731 23.8622 45.2945 26.8232 47.5305C29.8832 49.8413 32.4153 52.4012 36.0199 50.2384C37.3024 49.4689 40.918 44.86 41.7677 44.86C42.8311 44.86 42.591 44.987 43.7037 46.1169L52.0192 54.5603C53.9611 56.5318 53.5948 56.2424 50.4324 59.4587C46.9229 63.028 42.0193 64.3333 37.0204 62.5712C34.0411 61.521 26.4317 56.5761 23.9069 54.4879L19.8341 51.0179C19.5513 50.7338 19.3658 50.5211 19.0775 50.2393C17.5036 48.7011 17.7382 49.1221 16.027 47.1491C15.5186 46.5627 15.1262 46.2584 14.6186 45.6143C13.2403 43.8657 12.0977 42.6815 10.5176 40.4972C10.0877 39.903 9.74627 39.3648 9.30338 38.7652C8.22348 37.3032 5.55911 32.7527 4.69576 31.0687C2.73936 27.2524 1.73277 23.9162 3.29937 19.5927C4.35231 16.687 5.62399 15.4955 7.64915 13.4392C8.95842 12.1096 9.35596 11.1988 10.6342 12.535L19.6461 21.6891C21.3013 23.3696 21.2853 23.3118 19.3287 25.2985C17.3636 27.2939 14.7267 29.2935 14.7267 31.7116C14.7267 34.0579 15.0128 34.2042 16.3002 36.1724C16.6534 36.7125 16.9775 37.1632 17.3551 37.6793C17.9104 38.4384 18.6454 39.2433 19.6263 38.4912C20.08 38.1435 20.0588 37.7474 20.0588 37.2544C20.0588 36.2758 17.2658 33.873 17.2658 32.227C17.2658 29.3791 23.3595 26.787 23.3595 23.7192C23.3595 21.2031 22.831 21.1846 20.5982 18.9175L13.8697 12.0855C12.1835 10.3733 11.7006 9.28174 9.26766 9.28174C7.72617 9.28174 6.64289 10.7222 5.80819 11.5697C4.80783 12.5855 3.89965 13.4365 3.0454 14.5653C1.63233 16.4329 0 19.7852 0 23.0746L0.000168524 23.0743Z" fill="white"/>
<path fill-rule="evenodd" clip-rule="evenodd" d="M35.6738 1.28902C35.6738 2.78253 37.4046 2.56299 37.7966 2.61415C41.5521 3.1044 42.4017 2.83832 46.4831 4.49319C49.6583 5.78067 52.7258 7.82313 55.085 10.3255L55.7646 11.0533C58.9334 14.2154 61.3264 19.6951 62.0818 24.2327C62.5777 27.2126 61.9608 29.7773 63.7306 29.7773C64.7311 29.7773 64.9573 29.0134 65.0001 28.2718V27.3281C65.0001 23.4889 63.6318 18.9777 62.378 16.3264C60.8942 13.1883 59.0889 10.651 56.7997 8.32655C51.5844 3.031 44.8571 0 36.9435 0C36.2532 0 35.674 0.594803 35.674 1.28902H35.6738Z" fill="white"/>
<path fill-rule="evenodd" clip-rule="evenodd" d="M35.6738 9.15237C35.6738 9.43985 35.914 9.83445 36.1012 10.0074C36.7581 10.6142 38.3995 10.4017 39.3783 10.5471C43.4797 11.1567 46.6722 12.779 49.5434 15.6943C49.9922 16.15 50.4148 16.5178 50.7837 17.0131C52.8977 19.8518 54.0875 22.322 54.6129 26.0156C54.709 26.6902 54.7022 27.7692 54.8008 28.4029C55.1495 30.6447 57.3828 29.7501 57.3828 28.4883C57.3828 22.6725 55.2336 17.7337 51.3842 13.8252C49.8661 12.2838 47.6234 10.5035 45.5962 9.64758C42.824 8.47697 40.6965 7.7345 36.9433 7.7345C36.2198 7.7345 35.6738 8.4128 35.6738 9.15254V9.15237Z" fill="white"/>
<path fill-rule="evenodd" clip-rule="evenodd" d="M35.6738 16.8867C35.6738 17.1984 36.0023 17.7135 36.2268 17.8721C37.1442 18.5203 39.3788 17.6673 42.4038 19.7211C47.835 23.4085 46.7747 28.1421 47.3499 29.1364C47.9464 30.1679 49.7657 29.9783 49.7657 28.2304C49.7657 21.4045 43.9222 15.4686 37.1973 15.4686C36.2989 15.4686 35.6738 16.0013 35.6738 16.8867Z" fill="white"/>
<path fill-rule="evenodd" clip-rule="evenodd" d="M35.6738 24.4922C35.6738 26.9085 39.1077 24.7182 39.4882 28.3536C39.711 30.4819 42.1485 29.8671 42.1485 28.4882C42.1485 25.6356 39.753 23.2031 36.9435 23.2031C36.386 23.2031 35.674 23.9263 35.674 24.4922H35.6738Z" fill="white"/>
<path fill-rule="evenodd" clip-rule="evenodd" d="M21.2012 41.7655C21.2012 43.0084 22.5972 43.6179 23.3977 42.8359C24.3367 41.9185 23.6832 40.6617 22.6795 40.5249C21.9708 40.4284 21.2012 41.0989 21.2012 41.7655Z" fill="white"/>
</g>
<defs>
<clipPath id="clip0_860_3027">
<rect width="65" height="66" fill="white"/>
</clipPath>
</defs>
</svg>
