<svg width="20" height="14" viewBox="0 0 20 14" fill="none" xmlns="http://www.w3.org/2000/svg">
<g clip-path="url(#clip0_575_504)">
<path fill-rule="evenodd" clip-rule="evenodd" d="M13.1193 6.62924C12.8874 6.69182 10.2781 9.22525 10.0918 9.22525C9.84894 9.22525 9.80146 9.23572 9.50619 8.93623C9.35828 8.7862 9.25624 8.72588 9.11646 8.58838L6.83487 6.58289C6.78501 6.77159 6.61935 6.86049 6.51378 7.00011L1.49899 12.7799C1.38944 12.9086 1.37475 12.8584 1.3303 13.0266C1.4662 13.0993 1.72252 13.212 1.92665 13.212H18.0734C18.2775 13.212 18.5338 13.0993 18.6697 13.0266C18.5362 12.8252 18.5044 12.7967 18.3363 12.6218L15.057 8.84321C14.9688 8.74797 14.9728 8.73056 14.8947 8.63631L13.1193 6.62926L13.1193 6.62924ZM6.28442 6.07295L5.62994 5.48274C5.21697 5.0774 4.34543 4.36733 3.98009 3.99775L3.31374 3.41951C3.17224 3.28647 3.12998 3.23809 2.97487 3.11296L0.963335 1.34446C0.862499 1.53707 0.77985 1.69612 0.77985 1.99347V12.0994C0.77985 12.2246 0.801767 12.2272 0.825726 12.3312C0.962078 12.2389 2.26646 10.675 2.53497 10.3963L3.56707 9.21419C3.64723 9.12712 3.64407 9.11468 3.70882 9.03292L5.94396 6.47058C6.07019 6.30569 6.18837 6.21787 6.28442 6.07293V6.07295ZM19.1743 12.3776C19.1863 12.2326 19.2202 12.2129 19.2202 12.0531V1.99349C19.2202 1.69614 19.1375 1.53709 19.0367 1.34448L17.6953 2.49219C17.4779 2.68632 17.272 2.90507 17.0507 3.0924L13.7156 6.02661C13.7727 6.24258 15.2677 7.88194 15.564 8.23805L16.0873 8.82176C16.1655 8.91565 16.1614 8.93336 16.2496 9.02862L19.1743 12.3776L19.1743 12.3776ZM18.211 0.788197H1.8349C1.711 0.788197 1.70841 0.810327 1.60554 0.834559L2.90105 1.98227C3.00155 2.072 3.0538 2.14781 3.15835 2.23216L3.7047 2.69989C4.39629 3.35015 5.10223 3.92695 5.79095 4.57828L7.35057 5.969C7.4621 6.07448 7.51357 6.08824 7.627 6.19957L8.40684 6.89494C8.5864 7.07118 8.74696 7.21414 8.93398 7.38207C9.03907 7.47646 9.07904 7.48465 9.18665 7.59029C9.29684 7.69844 9.33171 7.74357 9.44958 7.83451C9.56711 7.92519 9.60263 7.97005 9.71241 8.07881C9.82341 8.18879 9.87977 8.21671 10 8.29807C10.2161 8.15183 10.3255 8.00921 10.524 7.85406C10.6583 7.74906 10.6759 7.72961 10.7906 7.61359L17.397 1.72714C17.5144 1.60661 17.5431 1.59089 17.6674 1.49037C17.7715 1.40611 17.8248 1.32907 17.929 1.24482C18.0058 1.18267 18.56 0.788138 18.211 0.788138V0.788197ZM20 1.99349V12.0067C20 13.0913 19.1007 14.0001 18.0275 14.0001H1.97251C0.899347 14.0001 4.00543e-05 13.0913 4.00543e-05 12.0067V1.99349C4.00543e-05 0.91596 0.924797 0.00012207 1.8349 0.00012207H18.1651C19.0685 0.00012207 20 0.909972 20 1.99349H20Z" fill="#414141"/>
</g>
<defs>
<clipPath id="clip0_575_504">
<rect width="20" height="14" fill="white" transform="matrix(-1 0 0 1 20 0)"/>
</clipPath>
</defs>
</svg>
