<svg width="287" height="313" viewBox="0 0 287 313" fill="none" xmlns="http://www.w3.org/2000/svg">
<path d="M1 65C1 29.6538 29.6538 1 65 1H286V248C286 283.346 257.346 312 222 312H1V65Z" stroke="#E9E9E9" stroke-width="2"/>
<path d="M143.498 146.849C169.57 146.849 190.705 125.692 190.705 99.5933C190.705 73.4944 169.57 52.3372 143.498 52.3372C117.426 52.3372 96.291 73.4944 96.291 99.5933C96.291 125.692 117.426 146.849 143.498 146.849Z" stroke="#E36F6D" stroke-width="2" stroke-miterlimit="22.9256"/>
<path fill-rule="evenodd" clip-rule="evenodd" d="M132.201 95.6732C132.201 96.3981 132.97 97.8078 133.283 98.3269C134.41 100.188 134.901 100.887 136.408 102.681L139.649 106.028L142.255 108.141C143.502 109.08 144.361 109.595 145.724 110.275C146.515 110.669 147.351 111.184 148.397 110.459C149.372 109.778 152.139 106.181 153.288 106.181C154.482 106.181 154.777 106.82 155.711 107.76L159.359 111.412C160.427 112.481 161.737 113.546 160.069 115.198L157.772 117.529C154.674 121.543 149.944 119.306 146.091 117.748C144.173 116.97 140.53 114.687 138.844 113.421L136.949 111.931C136.721 111.752 136.542 111.595 136.314 111.407C135.433 110.669 133.502 108.722 132.796 107.984L130.713 105.527C130.011 104.659 129.363 103.782 128.728 102.882C126.211 99.3337 123.39 93.8518 123.39 89.3455C123.39 86.7411 125.438 85.2911 127.373 83.3535C129.76 80.9638 130.208 82.0468 133.024 84.866C133.699 85.5417 135.8 87.5734 136.242 88.1462C137.597 89.887 136.614 90.4911 135.067 92.035L132.662 94.4336C132.398 94.7558 132.197 95.1048 132.197 95.6642L132.201 95.6732ZM120.721 89.35C120.721 93.9234 123.095 98.8057 124.897 101.822C126.895 105.169 129.296 108.23 132.04 110.969L133.507 112.441C134.758 113.649 137.284 115.605 138.674 116.531C139.108 116.818 139.461 117.055 139.899 117.35C143.373 119.677 149.224 122.393 153.279 122.393C155.461 122.393 157.258 121.83 158.688 120.416L159.797 119.212C160.995 117.999 162.327 116.938 163.065 115.533C164.075 113.609 163.275 111.586 161.934 110.262L156.86 105.187C155.389 103.715 153.449 102.838 151.37 104.1L147.141 108.06C146.529 107.653 145.845 107.407 145.201 106.973C141.196 104.279 137.986 100.994 135.5 96.9083C135.281 96.5503 135.138 96.2146 134.951 95.8566C135.299 95.6239 138.42 92.5049 138.831 91.8112C139.425 90.8133 139.488 90.2584 139.488 89.1755C139.488 87.108 136.806 84.9331 135.46 83.5862C134.401 82.5256 133.547 81.6172 132.438 80.6461C132.161 80.4044 132.045 80.3105 131.727 80.1091C130.132 79.0798 128.719 79.2857 127.177 80.0643C126.376 80.4671 124.776 82.2168 124.025 82.9686C122.97 84.0247 122.63 84.2529 121.776 85.5283C121.2 86.392 120.708 87.909 120.708 89.3589L120.721 89.35Z" fill="#E36F6D"/>
<path fill-rule="evenodd" clip-rule="evenodd" d="M144.656 77.8582C144.656 78.3594 144.615 78.7174 145.098 79.1067C145.335 79.2991 145.635 79.3841 145.997 79.4557C150.552 80.3552 154.307 82.3108 157.579 85.5865C157.798 85.8013 158.009 85.9893 158.192 86.2175C158.42 86.5039 158.549 86.6158 158.773 86.8798C159.452 87.6808 160.391 88.9607 160.874 89.8512L162.179 92.3751C163.047 94.3262 163.141 95.4405 163.619 97.2573C164.12 99.1682 166.274 98.3985 166.274 97.2708C166.274 96.161 165.407 93.3865 164.964 92.2588C164.392 90.7999 163.722 89.3455 162.877 88.0254C162.224 87.0006 161.442 86.0027 160.682 85.0585C160.056 84.2798 158.277 82.5793 157.477 81.9438C154.441 79.5229 150.959 77.7508 147.123 76.99C146.779 76.9229 146.435 76.82 146.104 76.7886H145.778C145.527 76.8155 145.295 76.905 145.076 77.1153C144.861 77.3212 144.66 77.4867 144.66 77.8537L144.656 77.8582Z" fill="#E36F6D"/>
<path fill-rule="evenodd" clip-rule="evenodd" d="M156.489 98.7878C157.307 98.7878 158 98.4567 158 97.5393C158 96.1431 156.99 93.7847 156.489 92.8181C155.192 90.3211 152.778 87.833 150.262 86.5845C148.894 85.9043 147.007 85.0719 145.367 85.0719C144.723 85.0719 143.865 86.0251 144.441 87.0678C145.134 88.3163 147.003 86.9022 151.656 90.7999L152.47 91.677C152.622 91.8694 152.729 91.9366 152.89 92.1469C153.856 93.3775 154.759 95.0959 155.152 96.6532C155.313 97.2797 155.438 98.7923 156.484 98.7923L156.489 98.7878Z" fill="#E36F6D"/>
</svg>
