<svg width="287" height="313" viewBox="0 0 287 313" fill="none" xmlns="http://www.w3.org/2000/svg">
<path d="M1 65C1 29.6538 29.6538 1 65 1H286V248C286 283.346 257.346 312 222 312H1V65Z" stroke="#E9E9E9" stroke-width="2"/>
<path d="M143.5 148.698C170.087 148.698 191.639 127.123 191.639 100.509C191.639 73.8947 170.087 52.3196 143.5 52.3196C116.914 52.3196 95.3613 73.8947 95.3613 100.509C95.3613 127.123 116.914 148.698 143.5 148.698Z" stroke="#E36F6D" stroke-width="2" stroke-miterlimit="22.9256"/>
<path fill-rule="evenodd" clip-rule="evenodd" d="M138.758 114.549L142.584 119.809C143.096 120.497 143.891 120.483 144.363 119.863L148.229 114.549C148.863 114.562 151.288 115.034 151.921 115.196C153.699 115.641 161.056 117.772 157.687 120.888C155.505 122.924 150.533 123.706 147.677 124.098L143.487 124.34L139.378 124.111C136.441 123.747 133.207 123.18 130.607 121.778C124.665 118.595 132.129 115.924 134.972 115.21C136.063 114.94 137.572 114.643 138.745 114.549H138.758ZM142.557 74.6543H144.322C146.518 74.7757 148.647 75.3286 150.789 76.2458C151.288 76.4616 151.719 76.7313 152.164 76.9875C152.581 77.2303 152.999 77.5135 153.376 77.7968C156.637 80.1165 159.143 83.6097 160.113 87.5074C160.369 88.5594 160.638 89.7462 160.638 91.0275C160.638 95.8154 160.005 97.6496 157.917 101.534C157 103.247 154.306 106.861 153.107 108.331C152.945 108.534 152.824 108.722 152.676 108.911L151.436 110.503C151.14 110.907 150.897 111.191 150.587 111.568C150.426 111.77 150.304 111.959 150.156 112.148C150.008 112.35 149.887 112.445 149.752 112.647L153.322 113.416C155.343 113.915 157.647 114.94 159.156 116.262C161.514 118.339 160.961 121.184 158.361 122.992C155.222 125.19 150.102 126.229 144.969 126.377H142.207C138.529 126.269 135.013 125.716 132.426 124.826C130.216 124.071 126.336 122.29 126.336 119.512C126.336 116.909 128.384 115.587 130.472 114.562C132.803 113.416 134.891 113.187 137.236 112.647C136.548 111.622 133.207 107.495 132.156 106.106C130.647 104.096 128.68 101.278 127.764 98.9983C126.538 95.9637 126.336 94.615 126.336 91.2298C126.336 86.9814 128.397 82.6521 131.361 79.6849C132.291 78.7678 133.706 77.6079 134.891 76.9471C135.727 76.475 136.764 75.9625 137.707 75.6254C138.259 75.4365 138.691 75.3017 139.256 75.1533C140.375 74.8701 141.48 74.7082 142.557 74.6543ZM128.357 91.9176C128.357 90.8657 128.545 89.3956 128.734 88.5594C130.149 82.6521 134.312 78.5251 140.078 77.082C146.976 75.3556 154.616 79.2534 157.256 85.6057C158.967 89.7327 159.129 93.9407 157.31 98.0677C157.054 98.6476 156.812 99.2411 156.502 99.7806C153.955 104.177 151.005 107.576 147.933 111.609C147.421 112.283 143.716 116.99 143.595 117.462H143.393C143.312 117.152 142.598 116.275 142.369 115.965C141.991 115.452 141.682 115.021 141.304 114.508C140.927 113.996 140.604 113.605 140.213 113.079L132.507 103.017L130.553 99.9154C129.219 97.272 128.37 94.9387 128.37 91.9042L128.357 91.9176Z" fill="#E36F6D"/>
<path fill-rule="evenodd" clip-rule="evenodd" d="M138.448 91.8233C138.448 91.122 138.704 90.2993 138.92 89.7733C139.971 87.3186 142.867 86.0913 145.535 87.2512C149.483 88.9506 149.483 94.696 145.535 96.3954C141.897 97.9599 138.448 95.1411 138.448 91.8233ZM136.427 91.3243C136.427 93.5361 136.697 94.6421 138.057 96.3549C138.677 97.1506 139.445 97.7441 140.361 98.1891C143.285 99.6188 146.936 98.877 148.93 96.3549C150.695 94.1296 151.113 91.3108 149.887 88.7617C148.836 86.5499 146.384 84.7561 143.999 84.7561C142.126 84.7561 141.008 84.9045 139.418 86.0239C139.108 86.2397 138.731 86.5499 138.475 86.7926C137.586 87.6693 136.441 89.5844 136.441 91.3108L136.427 91.3243Z" fill="#E36F6D"/>
<path fill-rule="evenodd" clip-rule="evenodd" d="M146.519 80.4133C146.519 81.5462 147.893 81.3843 149.658 82.6251C150.493 83.2051 151.126 83.7041 151.746 84.4728C152.231 85.0663 152.433 85.2416 152.918 86.0238C153.107 86.3475 153.215 86.5633 153.376 86.8735C155.37 90.8792 153.713 92.9292 155.694 92.9292C157.728 92.9292 155.869 87.413 155.707 86.9544C155.033 85.0798 154.104 84.1491 153.174 82.9353C152.312 81.8159 147.866 78.3767 146.761 79.7389C146.64 79.8873 146.519 80.157 146.519 80.3998V80.4133Z" fill="#E36F6D"/>
<path fill-rule="evenodd" clip-rule="evenodd" d="M142.584 79.604C142.584 81.1145 144.605 81.1145 144.605 79.604C144.605 78.3901 142.584 78.3901 142.584 79.604Z" fill="#E36F6D"/>
</svg>
