<svg width="138" height="18" viewBox="0 0 138 18" fill="none" xmlns="http://www.w3.org/2000/svg">
<path fill-rule="evenodd" clip-rule="evenodd" d="M6.42386 5.256L4.68786 5.57095C1.90575 5.91036 0.353027 5.72384 0.353027 7.47592C0.353027 8.4437 4.27979 10.6407 4.40774 11.5213C4.66192 13.2612 1.97837 17.2867 5.16682 17.2867C6.13165 17.2867 9.45323 15.2349 10.2313 15.186C11.3103 15.1157 13.7137 17.2867 15.844 17.2867C17.9431 17.2867 16.3558 12.512 16.0532 11.3638C16.9143 10.8532 17.5419 10.1392 18.3027 9.46651C19.6514 8.27399 22.3056 6.32315 17.7408 5.79875L14.4728 5.35691C12.4031 4.84015 12.7212 0.628113 10.1916 0.628113C8.98984 0.628113 8.98811 1.27482 8.16852 2.72572L7.06709 4.71325C6.67458 5.29117 7.07746 5.04655 6.42386 5.25447V5.256Z" fill="#E36F6D"/>
<path fill-rule="evenodd" clip-rule="evenodd" d="M89.7852 6.92094C89.7852 8.91305 93.7621 10.5367 93.7621 11.3638C93.7621 13.9675 92.4514 15.4566 93.3436 17.1017C95.6935 17.5863 95.626 16.828 99.1361 15.3527C99.9003 15.0316 99.7759 15.1019 100.601 15.4826C101.45 15.8755 104.304 17.4885 105.183 17.3555C106.958 17.0864 106.225 15.1157 105.964 13.7183C105.8 12.8392 105.506 11.9754 105.485 11.1804C106.322 10.7874 109.671 8.10734 109.671 7.29398C109.671 5.77581 107.726 5.86296 105.337 5.574C102.786 5.26517 103.348 5.3676 101.927 2.85261C101.135 1.45064 101.014 0.631165 99.6237 0.631165C97.8168 0.631165 97.4485 3.54825 96.207 5.01291C95.6831 5.63057 94.7943 5.48227 92.8353 5.733C91.6906 5.87825 89.7852 5.94093 89.7852 6.92399V6.92094Z" fill="#E36F6D"/>
<path fill-rule="evenodd" clip-rule="evenodd" d="M70.4415 0.628058C68.6484 0.628058 68.9354 0.88185 67.5106 3.40449C66.2 5.72531 67.1147 5.2483 62.1245 5.85832C57.4594 6.42859 61.7113 9.1561 63.2761 10.4801C63.8674 10.9816 64.2478 11.0274 64.0991 12.0151C63.7084 14.6111 61.7424 18.8491 66.4663 16.7301C71.0207 14.6875 69.0374 14.6998 73.4431 16.6674C73.8858 16.8647 74.8212 17.3386 75.2985 17.3661C77.6777 17.4946 76.329 14.0072 75.9832 12.1741C75.7705 11.0412 76.2547 10.8195 78.0287 9.36861C78.7584 8.77235 80.5134 7.90701 79.8875 6.73284C79.5417 6.08154 79.0627 6.00662 78.1065 5.87973C77.1555 5.75283 76.6229 5.70238 75.71 5.5923C73.1457 5.28347 73.6264 5.33545 72.6045 3.52527C72.2207 2.84339 71.2697 0.625 70.4415 0.625V0.628058Z" fill="#E36F6D"/>
<path fill-rule="evenodd" clip-rule="evenodd" d="M118.016 7.10606C118.016 8.11053 121.263 10.8075 122.202 11.364C122.013 12.0825 121.908 12.7598 121.756 13.5609C121.443 15.2014 120.59 17.2868 122.829 17.2868C123.739 17.2868 124.975 16.4734 125.693 16.1172C127.047 15.4476 127.676 15.021 128.414 15.2932C130.79 16.1661 132.822 17.8739 133.999 17.1813C135.706 16.1784 133.472 12.6711 133.87 11.4083C134.126 10.598 137.414 8.771 137.902 7.39501V6.78652C137.701 6.33551 136.973 5.97928 135.403 5.79887L132.135 5.35703C132.09 5.34633 132.016 5.31881 131.981 5.30811C131.345 5.13229 131.506 5.13687 131.266 4.8311C130.102 3.35727 129.716 0.628235 128.063 0.628235C125.883 0.628235 125.676 4.14311 124.398 5.16133C123.946 5.52062 121.517 5.67503 120.882 5.75454C119.599 5.91354 118.016 5.92424 118.016 7.10606Z" fill="#E36F6D"/>
<path fill-rule="evenodd" clip-rule="evenodd" d="M30.3198 7.10606C30.3198 8.24048 33.7417 10.8212 34.506 11.179C34.4402 13.7995 32.2322 17.2868 35.1336 17.2868C36.4633 17.2868 39.1952 15.2503 40.1981 15.1861C41.903 15.0776 43.4177 17.7669 46.6476 17.1018C47.5416 15.4522 46.2292 14.0349 46.2292 11.364C46.2292 10.1149 54.4112 6.59389 47.5225 5.77747L44.4396 5.35703C43.6286 5.15522 43.6892 5.0696 43.224 4.21038C41.8183 1.61283 41.922 0.628235 39.9491 0.628235C38.6489 0.628235 37.5526 4.48405 36.7036 5.16133C35.6126 6.03126 30.3216 5.17662 30.3216 7.10606H30.3198Z" fill="#E36F6D"/>
</svg>
