<svg width="81" height="81" viewBox="0 0 81 81" fill="none" xmlns="http://www.w3.org/2000/svg">
<path fill-rule="evenodd" clip-rule="evenodd" d="M55.0836 66.4342C55.9804 64.7403 56.327 64.4317 58.7685 64.3303C65.4143 64.0543 67.8894 63.6866 67.8894 56.0841L75.8271 63.9345C76.6083 64.7157 78.0588 65.69 77.5377 67.1193C77.0078 68.5734 75.5212 68.4693 73.9939 68.8547C73.3634 69.0142 72.4032 69.1898 71.9288 69.4216C69.9113 70.41 69.3875 72.0836 68.9273 74.3145C68.7218 75.3136 68.4714 77.4862 66.8375 77.4862C65.6798 77.4862 64.7398 76.1786 63.6349 75.0737L55.0836 66.4342H55.0836ZM70.5207 23.9818C70.5207 26.5045 73.1527 25.8299 73.1527 27.8403C73.1527 29.1374 69.9951 34.1803 69.9951 35.7348C69.9951 38.5309 70.4122 38.1799 71.4721 40.7485C72.7127 43.7544 74.2099 44.8187 71.9553 46.4667C67.1214 50.0009 65.5034 49.7733 65.096 55.0454C64.5935 61.5475 65.2504 60.8853 59.1309 61.3605C53.5749 61.7918 54.0219 62.9045 50.3221 67.9888C48.1485 70.9744 47.7376 68.5399 45.6099 68.5399C44.7616 68.5399 44.207 69.0945 44.207 69.9428C44.207 71.589 48.6326 73.6101 51.5292 71.1261C52.068 70.6641 52.8157 69.5292 53.1534 68.8908L62.3194 77.9694C64.3051 79.9552 64.5626 80.2929 67.1876 80.2929C68.8947 80.2929 70.5674 78.7675 71.0727 77.5118C71.346 76.8302 71.585 75.7456 71.7851 74.8921C72.0126 73.9248 72.0055 72.969 72.7453 72.3438C73.576 71.641 76.6789 71.4409 77.8851 70.8166C79.3242 70.0724 80.5198 68.5892 80.5198 66.4342C80.5198 64.2809 79.3841 63.4565 78.2837 62.3561C76.9619 61.0343 69.0824 53.3092 68.5913 52.5756C68.9995 51.9663 72.0125 49.9373 72.8017 49.4179C77.7026 46.1942 76.0986 43.302 73.6191 38.4259C72.1968 35.6272 72.8238 36.2179 74.4312 32.4528C75.3438 30.3136 77.2794 27.1746 74.6755 24.5636C72.3829 22.2667 70.5206 22.8592 70.5206 23.9817L70.5207 23.9818Z" fill="#E36F6D"/>
<path fill-rule="evenodd" clip-rule="evenodd" d="M12.1039 56.4352C12.1039 57.9633 12.3649 60.3811 12.9196 61.4092C13.5588 62.5935 14.7325 63.5669 16.2324 63.8852L21.5645 64.3419C24.1233 64.5288 23.9717 64.9459 25.0853 66.6107L17.0595 74.7237C15.9246 75.8586 15.1875 77.1353 13.6832 77.1353C11.9999 77.1353 11.9338 75.4071 11.611 74.1197C10.8986 71.2733 10.6737 69.4728 6.88743 68.6695C5.71026 68.4199 3.7819 68.2382 3.18136 67.2825C2.24579 65.7949 3.52699 64.9237 4.34086 64.1108C5.23233 63.2193 5.9942 62.4575 6.88474 61.5669L12.1039 56.4351L12.1039 56.4352ZM4.03496 44.1557C4.03496 47.0629 4.61959 47.6017 7.19343 49.4172L10.4921 51.7327C10.9885 52.0694 11.1516 52.2908 11.5775 52.5757C11.0952 53.296 3.6029 60.6393 2.32431 61.9179C0.667443 63.5721 0 64.1691 0 66.6107C0 68.465 1.48401 70.0777 2.80316 70.6482C4.00853 71.1693 7.36805 71.3959 8.00907 72.2839C9.22765 73.9733 8.30799 80.1183 14.0333 80.1183C16.4925 80.1183 18.704 77.1142 20.8317 74.9865L26.84 69.0663C28.4351 71.4479 30.5302 73.4434 33.9188 71.7593L37.7404 69.9675C38.4308 69.688 38.9828 69.3044 39.7244 69.1439C40.8142 68.9094 41.3997 69.0654 41.3997 67.3116C41.3997 65.7588 38.8294 66.212 37.5976 66.8416C36.6797 67.3107 32.1853 69.4164 31.576 69.4164C30.2348 69.4164 29.4995 67.7516 28.4934 66.3601C25.7308 62.5421 26.1532 61.8913 21.1995 61.3738C15.3137 60.7592 15.289 62.1462 14.9054 55.212C14.6206 50.0599 12.9293 49.91 8.14229 46.5381C5.64781 44.7816 7.5436 43.9299 7.5436 42.4009C7.5436 41.1038 5.71833 40.0431 4.67084 42.1611C4.36047 42.7898 4.03512 43.3082 4.03512 44.1557L4.03496 44.1557Z" fill="#E36F6D"/>
<path fill-rule="evenodd" clip-rule="evenodd" d="M4.035 27.4904C4.035 29.8297 4.99261 31.2326 6.20059 33.7447C8.09638 37.688 6.41923 36.614 7.24371 37.956C8.01172 39.2046 9.99924 38.9727 9.99924 36.7877C9.99924 34.6459 9.6483 34.1477 8.47643 31.8189C8.14309 31.1558 7.9959 30.6656 7.66171 30.0025C6.15658 27.0116 6.68474 27.0874 9.82377 24.8592L13.3834 22.2783C15.7571 19.9249 14.4362 13.7834 15.6513 12.2667C16.1742 11.6142 16.7791 11.594 17.8769 11.5102C18.6211 11.4529 20.061 11.3144 20.7506 11.2254C22.978 10.9388 24.2177 11.1169 25.6435 9.97858C27.5614 8.44694 29.6741 3.28162 31.4014 3.28162C32.814 3.28162 36.2388 5.12268 37.7722 5.85719C40.2623 7.05019 41.7392 6.0953 44.1499 4.97812C49.4467 2.52152 48.8109 2.28434 51.9588 6.93213C52.9385 8.37911 53.9463 9.99979 55.4303 10.6532C58.3357 11.9308 64.2268 10.2714 64.6932 13.1441C64.8167 13.9051 64.8766 14.6281 64.9084 15.3847C64.9842 17.1606 65.1306 22.4027 67.3633 22.4027C68.1322 22.4027 68.767 21.8304 68.767 20.8243C68.767 20.1613 68.3676 19.8649 68.1851 18.9496C67.4964 15.5116 68.6823 11.2871 65.2259 9.27755C63.2145 8.10921 57.8332 8.62335 56.4506 7.87823C54.6985 6.93382 52.5091 0.298606 48.7686 0.298606C46.9592 0.298606 45.7221 0.934333 43.9718 1.81789C39.8954 3.87593 40.2745 3.97995 36.0209 1.81789C28.9368 -1.78147 28.5798 1.41317 24.4125 6.99475C23.1551 8.67889 22.2434 8.01143 19.047 8.46992C17.3495 8.7133 13.3763 8.46379 12.5272 12.1257C11.6789 15.7877 12.6083 19.2732 10.8333 20.6056C8.10252 22.6566 4.03491 24.4403 4.03491 27.4904H4.035Z" fill="#E36F6D"/>
<path fill-rule="evenodd" clip-rule="evenodd" d="M12.9812 36.4367C12.9812 45.0674 17.4323 53.2616 22.4522 57.1387C27.8196 61.283 32.6198 63.6276 40.3476 63.6276C52.5795 63.6276 63.6923 54.496 66.238 42.855C66.6657 40.9019 67.5659 38.1914 65.2583 38.1914C63.6288 38.1914 63.9039 40.1366 63.3996 42.1224C62.233 46.7164 60.8415 49.2003 57.9432 52.6286C53.9391 57.3619 47.2792 60.6456 40.874 60.6456C36.4917 60.6456 33.3773 60.2082 29.6439 58.368C28.3415 57.726 27.1573 57.07 26.011 56.2121L22.8526 53.58C21.41 51.8729 20.3272 50.7293 19.1748 48.6624C10.7575 33.5684 21.2257 22.1716 21.2257 21.1744C21.2257 20.4054 20.6535 19.7715 19.6474 19.7715C18.4579 19.7715 17.4915 21.8374 16.8733 22.7862C14.594 26.2877 12.9812 32.147 12.9812 36.4368V36.4367Z" fill="#E36F6D"/>
<path fill-rule="evenodd" clip-rule="evenodd" d="M19.121 35.5594C19.121 39.3836 19.2489 41.5783 20.8775 45.2067C21.322 46.1961 21.8166 47.1545 22.4188 48.0504C22.8976 48.7637 23.7036 50.2954 24.7343 50.2954C25.5508 50.2954 26.9722 49.3519 25.5129 47.412C21.5265 42.1135 20.9851 35.6413 23.4796 29.3923C25.0262 25.5188 28.6969 21.8188 32.5529 20.222C33.7724 19.7167 34.595 19.3922 35.9582 19.0651C42.3051 17.5423 49.5692 19.8217 53.6552 24.883C54.0308 25.3485 54.3051 25.599 54.686 26.1333C55.0158 26.5953 55.2653 27.0441 55.5765 27.523C55.9001 28.0202 56.0976 28.4373 56.3727 29.0078C57.9952 32.3647 58.4889 36.7321 57.6098 40.5422C57.4608 41.1876 57.3506 41.6409 57.1681 42.2052C57.034 42.6205 56.662 43.4767 56.662 43.9802C56.662 45.0789 58.6045 46.3072 59.4766 44.3391C61.7144 39.2874 61.1722 32.4529 58.8876 27.545C55.8807 21.0887 48.4307 15.7365 40.5231 15.7365C34.7069 15.7365 29.3185 17.6843 25.3911 21.6558C24.4705 22.5878 23.9045 23.213 23.1038 24.2807C20.8518 27.2858 19.1208 31.7202 19.1208 35.5594H19.121Z" fill="#E36F6D"/>
<path fill-rule="evenodd" clip-rule="evenodd" d="M39.9968 28.0168C42.4878 28.0168 41.4076 32.2853 45.9593 32.579C46.6127 32.6222 46.9063 32.6645 47.3401 32.953C48.1681 33.5059 48.0667 33.9547 48.0667 34.683C48.0667 36.3363 45.4347 36.4023 45.4347 39.9453C45.4347 40.947 45.7865 41.3261 45.7865 42.05C45.7865 42.9238 44.7478 43.8048 43.8563 43.8048C42.5266 43.8048 43.0019 42.5766 39.4704 42.5766C37.8462 42.5766 37.2017 43.8048 35.9619 43.8048C35.1921 43.8048 34.208 42.8208 34.208 42.05C34.208 40.3615 35.7194 38.9833 32.5803 35.9588C31.0152 34.4519 32.1491 32.9802 33.254 32.6769C34.3041 32.3886 34.5731 32.7281 35.6162 32.2316C36.2009 31.953 36.8039 31.5315 37.2369 31.0457C38.1345 30.0378 38.2263 28.0168 39.9968 28.0168V28.0168ZM28.9448 34.1565C28.9448 35.8662 29.4131 37.2417 30.6996 38.1905C31.2947 38.6287 31.6289 38.8377 31.5884 39.9346C31.5575 40.7688 31.4015 41.2881 31.4015 42.4009C31.4015 44.5356 33.3564 46.6113 36.313 46.6113C38.4019 46.6113 38.8498 45.3839 39.997 45.3839C41.5727 45.3839 40.7288 46.6113 44.3829 46.6113C46.4232 46.6113 48.5924 44.459 48.5924 42.4009C48.5924 40.1471 47.8675 39.2468 49.1902 38.2619C52.1283 36.0725 51.5216 31.4168 48.0043 30.0086C47.1313 29.6585 46.768 29.8913 45.8854 29.6718C43.4518 29.0661 45.113 25.2092 39.4706 25.2092C38.1039 25.2092 37.0484 26.0778 36.3509 26.8264C35.3254 27.9303 35.7046 29.1922 34.2444 29.6321C33.1678 29.9557 32.1767 29.5228 30.571 30.8702C29.8109 31.5086 28.945 32.8392 28.945 34.1565H28.9448Z" fill="#E36F6D"/>
<path fill-rule="evenodd" clip-rule="evenodd" d="M22.103 17.1401C22.103 17.8366 22.7035 18.5429 23.8578 18.5429C24.1532 18.5429 27.3337 16.0952 28.8856 15.3263C38.6097 10.5109 49.5197 12.1784 56.8816 19.5517C59.2051 21.8787 60.249 23.4588 61.8089 26.5529C62.494 27.9108 62.9798 29.3269 63.3652 30.9616C63.5274 31.6512 63.761 32.6855 63.837 33.472C63.8969 34.0822 63.8652 34.3326 64.1376 34.7497C64.5362 35.3599 64.9084 35.3836 65.4338 35.3836C68.557 35.3836 65.3712 27.3411 64.7373 25.9055C64.0204 24.2822 63.374 23.0936 62.4544 21.6977C62.0126 21.0293 61.5276 20.3953 61.0515 19.7675C60.7596 19.3831 60.6282 19.2967 60.3055 18.9351C55.693 13.7592 48.7658 9.77185 41.3996 9.77185C36.348 9.77185 33.6383 9.95085 28.9474 12.0538C27.8099 12.5635 22.1031 15.5271 22.1031 17.1398L22.103 17.1401Z" fill="#E36F6D"/>
<path fill-rule="evenodd" clip-rule="evenodd" d="M40.8741 54.6815C37.1601 54.6815 34.3226 54.2141 31.2152 52.4118L28.9447 51.1729C27.8134 51.1729 26.4784 52.6983 28.1335 53.9143C28.5884 54.2494 29.0276 54.5245 29.5311 54.7969C34.4848 57.4854 39.8071 58.5294 45.5395 56.8912C48.9122 55.9274 53.3449 53.4629 55.3332 50.896C55.7336 50.3793 56.6621 49.6448 56.6621 48.8918C56.6621 48.1228 56.0898 47.4889 55.0837 47.4889C54.1508 47.4889 54.0291 48.0823 53.5512 48.5876C50.3601 51.9621 45.9301 54.6814 40.8741 54.6814V54.6815Z" fill="#E36F6D"/>
</svg>
