<svg width="30" height="30" viewBox="0 0 30 30" fill="none" xmlns="http://www.w3.org/2000/svg">
<g clip-path="url(#clip0_990_306)">
<path fill-rule="evenodd" clip-rule="evenodd" d="M20.6252 1.17189C22.5084 1.17189 23.4884 1.33149 24.9817 2.08894C28.4944 3.87058 29.9583 8.6359 27.741 12.3309L27.0278 13.3168C25.7324 14.6505 25.661 14.2 25.664 15.3514C25.6655 15.9176 25.664 16.4842 25.664 17.0508C25.1889 16.7327 24.6777 15.9716 24.2023 15.6408C23.8507 15.3964 23.5851 15.5367 23.145 15.6453C22.0765 15.9091 20.8049 15.8205 19.6286 15.8205C18.5757 15.8205 17.4105 15.4079 16.6977 15.0601C15.8525 14.6475 15.2572 14.1084 14.6036 13.4626C14.3309 13.1929 14.0254 12.768 13.8164 12.4336C13.2907 11.5935 12.964 10.7721 12.7892 9.76947L12.659 8.49973L12.9607 6.51571C13.5347 4.41151 15.3164 2.38842 17.3793 1.67636C18.4005 1.32405 19.2759 1.17226 20.6252 1.17226V1.17189ZM19.5121 0H21.8819C22.424 0.0308784 22.9846 0.11012 23.7309 0.292786C25.619 0.754846 27.3184 2.03425 28.452 3.599C29.4386 4.961 29.9501 6.58416 30 8.22332V8.7609C29.9587 10.0831 29.6183 11.3982 28.9847 12.5783C28.5937 13.3067 27.5066 14.7621 26.8359 15.117L26.8392 18.5188C26.8247 18.857 26.645 19.1014 26.3087 19.1014C25.8463 19.1014 25.7886 18.9039 25.4739 18.5888C25.0944 18.2089 23.8384 17.0062 23.6721 16.7576C23.0036 17.0783 20.9537 17.0504 20.0981 17.0504C17.2781 17.0504 14.7877 15.7755 13.1419 13.5768C12.8338 13.1653 12.5957 12.7702 12.3636 12.3045C11.5905 10.7546 11.4849 9.69952 11.4849 8.02689C11.4849 7.44392 11.6597 6.75008 11.7776 6.26868C11.9012 5.76346 12.1047 5.26011 12.3249 4.82372C12.5637 4.34976 12.7598 3.9688 13.0582 3.56478C13.5158 2.94498 13.3443 3.18866 13.7565 2.73962C13.861 2.6254 13.8718 2.57518 13.9663 2.48069C15.3208 1.12613 17.6256 0 19.5129 0L19.5121 0Z" fill="white"/>
<path fill-rule="evenodd" clip-rule="evenodd" d="M0 14.1211V23.4962C0 24.5033 0.592641 25.7555 1.30619 26.35C2.94684 27.7172 4.19164 27.4218 6.56258 27.4218C7.73484 27.4218 7.42308 27.2567 8.12994 27.9639C8.41379 28.2477 10.0567 30 10.3126 30C10.6445 30 11.0158 29.9215 11.0158 29.4728V27.4222H16.9336C18.9805 27.4222 20.8596 25.5435 20.8596 23.4962V19.1602C20.8596 18.6531 19.6863 18.3313 19.684 19.3905L19.6892 23.0873C19.6952 24.4683 18.972 25.6316 17.7335 26.0535C16.806 26.369 14.2159 26.2503 13.0668 26.2503C12.2457 26.2503 11.4239 26.2537 10.6028 26.2474C9.62809 26.2399 9.84387 26.8794 9.84387 27.9494C9.46924 27.6986 8.29698 26.3389 8.16565 26.2875C7.58678 26.0617 4.31627 26.4538 3.25748 26.0982C2.71953 25.9174 2.55025 25.7864 2.16632 25.4899C1.92897 25.3065 1.58 24.8232 1.4457 24.5111C1.26862 24.0996 1.17152 23.6502 1.17152 23.0859V14.5311C1.17152 13.6925 1.46914 12.7468 2.06699 12.2036L2.53649 11.8528C2.73478 11.7327 2.83895 11.662 3.08188 11.5779C4.07743 11.2334 6.53505 11.367 7.79288 11.367C8.10389 11.367 10.0165 11.409 10.2263 11.3394C10.8736 11.1248 10.5991 10.1951 10.1367 10.1951H3.92564C1.87874 10.1951 0 12.0738 0 14.1211Z" fill="white"/>
<path fill-rule="evenodd" clip-rule="evenodd" d="M3.16406 18.633C3.16406 18.9563 3.30022 19.3362 3.63282 19.3362H16.2304C16.563 19.3362 16.6992 18.9563 16.6992 18.633C16.6992 18.4612 16.4023 18.1643 16.2304 18.1643H3.63282C3.46094 18.1643 3.16406 18.4612 3.16406 18.633Z" fill="white"/>
<path fill-rule="evenodd" clip-rule="evenodd" d="M22.2071 6.56259C22.2071 8.1824 20.3321 7.51089 20.3321 8.84759C20.3321 9.95772 20.1141 10.957 20.918 10.957C21.7116 10.957 21.504 9.75683 21.504 9.02356C21.7674 8.89707 21.9337 8.89595 22.1971 8.72073C24.2946 7.32637 23.5193 4.10162 20.7421 4.10162C18.5132 4.10162 17.7342 7.51573 19.1252 7.17569C19.979 6.96699 19.2554 5.79956 20.4459 5.38698C21.4441 5.041 22.2071 5.83267 22.2071 6.56259Z" fill="white"/>
<path fill-rule="evenodd" clip-rule="evenodd" d="M3.16406 21.9143C3.16406 22.2376 3.30022 22.6175 3.63282 22.6175H13.8283C14.2966 22.6175 14.6147 22.0349 14.2379 21.6219C14.1467 21.5222 14.0195 21.4456 13.8283 21.4456H3.63282C3.46094 21.4456 3.16406 21.7425 3.16406 21.9143Z" fill="white"/>
<path fill-rule="evenodd" clip-rule="evenodd" d="M3.16406 15.3518C3.16406 15.675 3.30022 16.0549 3.63282 16.0549H12.422C12.7546 16.0549 12.8907 15.675 12.8907 15.3518C12.8907 15.1799 12.5939 14.883 12.422 14.883H3.63282C3.46094 14.883 3.16406 15.1799 3.16406 15.3518Z" fill="white"/>
<path fill-rule="evenodd" clip-rule="evenodd" d="M20.332 12.5392C20.332 12.8458 20.2877 12.9365 20.5481 13.1441C21.364 13.7952 22.0251 12.0705 20.8595 12.0705C20.6504 12.0705 20.3323 12.3365 20.3323 12.5392H20.332Z" fill="white"/>
<path fill-rule="evenodd" clip-rule="evenodd" d="M15.5273 21.9143C15.5273 22.9947 16.6992 22.6428 16.6992 22.1487C16.6992 21.0683 15.5273 21.4203 15.5273 21.9143Z" fill="white"/>
</g>
<defs>
<clipPath id="clip0_990_306">
<rect width="30" height="30" fill="white"/>
</clipPath>
</defs>
</svg>
